HIERARCHY
ROOT Hips
{
	OFFSET 0.000000 0.000000 0.000000
	CHANNELS 6 Xposition Yposition Zposition Zrotation Yrotation Xrotation 
	JOINT LHipJoint
	{
		OFFSET 0.000000 0.000000 0.000000
		CHANNELS 3 Zrotation Yrotation Xrotation
		JOINT LeftUpLeg
		{
			OFFSET 1.363060 -1.794630 0.839290
			CHANNELS 3 Zrotation Yrotation Xrotation
			JOINT LeftLeg
			{
				OFFSET 2.448110 -6.726130 0.000000
				CHANNELS 3 Zrotation Yrotation Xrotation
				JOINT LeftFoot
				{
					OFFSET 2.562200 -7.039590 0.000000
					CHANNELS 3 Zrotation Yrotation Xrotation
					JOINT LeftToeBase
					{
						OFFSET 0.157640 -0.433110 2.322550
						CHANNELS 3 Zrotation Yrotation Xrotation
						End Site
						{
							OFFSET 0.000000 0.000000 0.000000
						}
					}
				}
			}
		}
	}
	JOINT RHipJoint
	{
		OFFSET 0.000000 0.000000 0.000000
		CHANNELS 3 Zrotation Yrotation Xrotation
		JOINT RightUpLeg
		{
			OFFSET -1.305520 -1.794630 0.839290
			CHANNELS 3 Zrotation Yrotation Xrotation
			JOINT RightLeg
			{
				OFFSET -2.542530 -6.985550 0.000000
				CHANNELS 3 Zrotation Yrotation Xrotation
				JOINT RightFoot
				{
					OFFSET -2.568260 -7.056230 0.000000
					CHANNELS 3 Zrotation Yrotation Xrotation
					JOINT RightToeBase
					{
						OFFSET -0.164730 -0.452590 2.363150
						CHANNELS 3 Zrotation Yrotation Xrotation
						End Site
						{
							OFFSET 0.000000 0.000000 0.000000
						}
					}
				}
			}
		}
	}
	JOINT LowerBack
	{
		OFFSET 0.000000 0.000000 0.000000
		CHANNELS 3 Zrotation Yrotation Xrotation
		JOINT Spine
		{
			OFFSET 0.028270 2.035590 -0.193380
			CHANNELS 3 Zrotation Yrotation Xrotation
			JOINT Spine1
			{
				OFFSET 0.056720 2.048850 -0.042750
				CHANNELS 3 Zrotation Yrotation Xrotation
				JOINT Neck
				{
					OFFSET 0.000000 0.000000 0.000000
					CHANNELS 3 Zrotation Yrotation Xrotation
					JOINT Neck1
					{
						OFFSET -0.054170 1.746240 0.172020
						CHANNELS 3 Zrotation Yrotation Xrotation
						JOINT Head
						{
							OFFSET 0.104070 1.761360 -0.123970
							CHANNELS 3 Zrotation Yrotation Xrotation
							End Site
							{
								OFFSET 0.000000 0.000000 0.000000
							}
						}
					}
				}
				JOINT LeftShoulder
				{
					OFFSET 0.000000 0.000000 0.000000
					CHANNELS 3 Zrotation Yrotation Xrotation
					JOINT LeftArm
					{
						OFFSET 3.362410 1.200890 -0.311210
						CHANNELS 3 Zrotation Yrotation Xrotation
						JOINT LeftForeArm
						{
							OFFSET 4.983000 -0.000000 -0.000000
							CHANNELS 3 Zrotation Yrotation Xrotation
							JOINT LeftHand
							{
								OFFSET 3.483560 -0.000000 -0.000000
								CHANNELS 3 Zrotation Yrotation Xrotation
								JOINT LeftFingerBase
								{
									OFFSET 0.000000 0.000000 0.000000
									CHANNELS 3 Zrotation Yrotation Xrotation
									JOINT LeftHandIndex1
									{
										OFFSET 0.715260 -0.000000 -0.000000
										CHANNELS 3 Zrotation Yrotation Xrotation
										End Site
										{
											OFFSET 0.000000 0.000000 0.000000
										}
									}
								}
								JOINT LThumb
								{
									OFFSET 0.000000 0.000000 0.000000
									CHANNELS 3 Zrotation Yrotation Xrotation
									End Site
									{
										OFFSET 0.000000 0.000000 0.000000
									}
								}
							}
						}
					}
				}
				JOINT RightShoulder
				{
					OFFSET 0.000000 0.000000 0.000000
					CHANNELS 3 Zrotation Yrotation Xrotation
					JOINT RightArm
					{
						OFFSET -3.136600 1.374050 -0.404650
						CHANNELS 3 Zrotation Yrotation Xrotation
						JOINT RightForeArm
						{
							OFFSET -5.241900 -0.000000 -0.000000
							CHANNELS 3 Zrotation Yrotation Xrotation
							JOINT RightHand
							{
								OFFSET -3.444170 -0.000000 -0.000000
								CHANNELS 3 Zrotation Yrotation Xrotation
								JOINT RightFingerBase
								{
									OFFSET 0.000000 0.000000 0.000000
									CHANNELS 3 Zrotation Yrotation Xrotation
									JOINT RightHandIndex1
									{
										OFFSET -0.622530 -0.000000 -0.000000
										CHANNELS 3 Zrotation Yrotation Xrotation
										End Site
										{
											OFFSET 0.000000 0.000000 0.000000
										}
									}
								}
								JOINT RThumb
								{
									OFFSET 0.000000 0.000000 0.000000
									CHANNELS 3 Zrotation Yrotation Xrotation
									End Site
									{
										OFFSET 0.000000 0.000000 0.000000
									}
								}
							}
						}
					}
				}
			}
		}
	}
}
MOTION
Frames: 12
Frame Time: 0.008333
-10.972040 17.067256 0.215889 53.913265 84.709513 74.074733 -12.467647 5.642824 1.548008 -10.065171 8.976065 -3.035108 -1.208258 1.194469 20.178486 0.324701 -7.755457 23.346495 -3.841100 0.000001 -76.516900 8.205368 -1.094941 3.215027 9.250690 0.417961 -40.704654 2.549874 -0.954203 25.299062 -0.760148 -1.259316 -7.428083 -0.300301 -0.000000 -28.879300 6.119027 -2.673646 -5.170277 0.629801 -3.348042 -3.813637 -7.142131 -3.310578 0.240115 5.660850 -10.941249 -6.844378 -4.500879 -0.346361 0.182061 0.000000 0.000000 0.000000 1.117074 6.224516 0.849736 -57.331681 -18.341308 30.512939 -178.969922 -78.257579 179.964153 4.886067 0.034314 -0.017558 -0.271918 0.522926 0.000000 0.000000 0.000000 0.000000 0.000000 0.000000 0.000000 13.321618 -7.390363 0.046887 69.106622 -0.600603 1.574314 0.562774 74.596138 -0.012823 -4.144501 4.767576 -0.185094 0.070071 -0.295057 0.000000 0.000000 0.000000 0.000000 0.000000 0.000000 0.000000 
-10.770660 17.011585 0.232660 55.997146 84.655846 75.961145 -12.579353 5.674247 1.516940 -9.733551 9.363761 -3.410796 -1.085595 1.278220 22.143747 0.391154 -8.349722 24.062938 -4.250599 0.000000 -74.849300 8.205299 -1.055963 3.114978 9.040269 0.467924 -41.046288 2.361433 -1.220745 28.484800 -0.953629 -1.620428 -9.465743 -0.149000 -0.000000 -26.328500 6.242249 -2.678522 -5.080976 0.632974 -3.361690 -3.798991 -7.232383 -3.322942 0.203956 5.428314 -10.726336 -6.904857 -4.629406 -0.354681 0.155136 0.000000 0.000000 0.000000 0.851327 6.207590 0.939383 -56.484480 -18.688332 30.012745 -178.898135 -77.639841 179.966216 4.653765 -0.146727 -0.024863 -0.269472 0.534020 -0.000000 0.000000 0.000000 0.000000 0.000000 0.000000 0.000000 13.700492 -7.191277 0.132077 69.035054 -0.464111 0.900097 0.602361 73.320757 -0.016464 -5.081059 4.662712 -0.222096 0.080664 -0.290207 0.000000 0.000000 0.000000 0.000000 0.000000 0.000000 0.000000 
-10.571908 16.961694 0.248292 58.857618 84.672057 78.593074 -12.708289 5.669127 1.479262 -9.324954 9.701725 -3.883245 -0.939868 1.356809 24.286233 0.472864 -8.733878 24.778384 -4.577100 -0.000000 -72.652500 8.195346 -1.048598 2.971586 8.924365 0.335728 -41.114719 2.212913 -1.453758 31.337720 -1.115539 -1.896127 -11.339185 0.015899 -0.000000 -24.850299 6.359318 -2.708913 -4.945758 0.636606 -3.397785 -3.778996 -7.316531 -3.359211 0.154877 5.218936 -10.475498 -6.942432 -4.757721 -0.363049 0.133766 0.000000 0.000000 0.000000 0.559631 6.168024 1.027109 -55.759848 -18.935383 29.480149 -178.844200 -77.193046 179.967695 4.506890 -0.352851 -0.032955 -0.268297 0.545034 -0.000000 0.000000 0.000000 0.000000 0.000000 0.000000 0.000000 14.097874 -6.982727 0.214323 68.944413 -0.247052 0.304875 0.638485 71.949379 -0.020757 -6.191606 4.513621 -0.262307 0.092556 -0.284709 -0.000000 0.000000 0.000000 0.000000 0.000000 0.000000 0.000000 
-10.375461 16.918941 0.262607 62.638301 84.758186 82.133182 -12.850335 5.620708 1.436001 -8.845935 9.982186 -4.463223 -0.773695 1.425392 26.570253 0.567264 -8.833090 25.444760 -4.769400 0.000000 -70.033400 8.168048 -1.087616 2.801824 8.919268 0.039513 -40.908566 2.115252 -1.644193 33.692268 -1.243793 -2.088916 -12.988785 0.176500 -0.000000 -24.435700 6.481159 -2.763568 -4.783785 0.643877 -3.456781 -3.757243 -7.390988 -3.419954 0.095644 5.030906 -10.195818 -6.957869 -4.883155 -0.371284 0.118102 0.000000 0.000000 0.000000 0.247392 6.112269 1.110133 -55.190583 -19.073370 28.945191 -178.810863 -76.933285 179.968340 4.468213 -0.568024 -0.042024 -0.269217 0.555302 -0.000000 0.000000 0.000000 0.000000 0.000000 0.000000 0.000000 14.499920 -6.770377 0.290775 68.840686 0.041661 -0.198320 0.668800 70.514539 -0.025600 -7.455215 4.305132 -0.301728 0.105388 -0.278532 -0.000000 0.000000 0.000000 0.000000 0.000000 0.000000 0.000000 
-10.180995 16.884192 0.275662 67.556525 84.906966 86.813163 -12.993760 5.523438 1.388225 -8.310911 10.197038 -5.150081 -0.590621 1.479857 28.951127 0.670602 -8.591656 26.010005 -4.782000 0.000000 -67.159599 8.122915 -1.180680 2.620018 9.028233 -0.400023 -40.452687 2.073367 -1.792242 35.468493 -1.340974 -2.203367 -14.403120 0.321700 -0.000000 -24.905000 6.616321 -2.840279 -4.610405 0.657409 -3.537889 -3.736021 -7.452418 -3.504222 0.030478 4.862357 -9.902822 -6.955147 -5.002336 -0.379138 0.107408 0.000000 0.000000 0.000000 -0.074878 6.046826 1.184797 -54.805220 -19.097682 28.434382 -178.800202 -76.871292 179.967945 4.554293 -0.775591 -0.051968 -0.272773 0.564087 -0.000000 0.000000 0.000000 0.000000 0.000000 0.000000 0.000000 14.891122 -6.566914 0.358907 68.734726 0.397246 -0.593667 0.691712 69.051520 -0.030836 -8.836124 4.026283 -0.335458 0.118738 -0.271721 -0.000000 0.000000 0.000000 0.000000 0.000000 0.000000 0.000000 
-9.988073 16.857877 0.287876 73.896428 85.101881 92.932940 -13.117798 5.374542 1.338521 -7.742333 10.335642 -5.943179 -0.394920 1.517003 31.383659 0.778507 -7.983889 26.419777 -4.584900 0.000001 -64.215000 8.070168 -1.327755 2.442556 9.240773 -0.950415 -39.792121 2.085882 -1.902712 36.648199 -1.413497 -2.257653 -15.589909 0.445601 0.000000 -26.031900 6.772511 -2.935366 -4.444139 0.679213 -3.639081 -3.718311 -7.499702 -3.609690 -0.037598 4.713289 -9.606713 -6.937224 -5.112808 -0.386458 0.101263 0.000000 0.000000 0.000000 -0.393982 5.977078 1.248255 -54.620532 -19.005918 27.970414 -178.813151 -77.010515 179.966392 4.774966 -0.959265 -0.062882 -0.279228 0.570673 -0.000000 0.000000 0.000000 0.000000 0.000000 0.000000 0.000000 15.261266 -6.377403 0.416079 68.637799 0.800199 -0.872900 0.706033 67.609682 -0.036268 -10.284544 3.671027 -0.357596 0.132123 -0.264407 -0.000000 0.000000 0.000000 0.000000 0.000000 0.000000 0.000000 
-9.796268 16.840015 0.299892 81.866619 85.319850 100.713068 -13.192844 5.178088 1.288037 -7.164643 10.391823 -6.835126 -0.193020 1.536445 33.821303 0.886845 -7.021017 26.623653 -4.172600 -0.000000 -61.389800 8.032808 -1.517527 2.282965 9.539547 -1.572777 -38.973811 2.146741 -1.981138 37.260726 -1.468439 -2.275178 -16.569260 0.547600 -0.000000 -27.526400 6.961360 -3.041267 -4.298308 0.711410 -3.754627 -3.705912 -7.533316 -3.730070 -0.105497 4.584368 -9.320345 -6.909011 -5.212168 -0.393079 0.098656 0.000000 0.000000 0.000000 -0.695086 5.910052 1.297440 -54.643321 -18.798155 27.568764 -178.849978 -77.350013 179.963625 5.132185 -1.104897 -0.074769 -0.288426 0.574413 0.000000 0.000000 0.000000 0.000000 0.000000 0.000000 0.000000 15.601872 -6.206837 0.460239 68.562729 1.232642 -1.027824 0.711834 66.238332 -0.041678 -11.740824 3.242212 -0.363137 0.145109 -0.256817 0.000000 0.000000 0.000000 0.000000 0.000000 0.000000 0.000000 
-9.605199 16.830281 0.312343 91.344247 85.536471 110.040392 -13.187752 4.950482 1.237020 -6.602429 10.368146 -7.819771 0.003887 1.543308 36.218822 0.992169 -5.753595 26.578388 -3.568700 0.000000 -58.830700 8.041729 -1.724625 2.150280 9.905624 -2.217727 -38.039436 2.244233 -2.028804 37.368969 -1.512218 -2.282148 -17.360765 0.630100 0.000000 -29.098800 7.196782 -3.142255 -4.180789 0.755396 -3.870626 -3.699705 -7.555488 -3.850734 -0.171060 4.476433 -9.055481 -6.876651 -5.298559 -0.398859 0.098152 0.000000 0.000000 0.000000 -0.965504 5.856653 1.328855 -54.868787 -18.476573 27.235080 -178.909936 -77.880123 179.959705 5.619418 -1.201287 -0.086938 -0.299804 0.574803 0.000000 0.000000 0.000000 0.000000 0.000000 0.000000 0.000000 15.906981 -6.054163 0.490517 68.520797 1.678367 -1.051719 0.710514 64.985025 -0.046850 -13.141293 2.753088 -0.348881 0.157378 -0.249279 -0.000000 0.000000 0.000000 0.000000 0.000000 0.000000 0.000000 
-9.414511 16.828120 0.325780 101.606350 85.734122 120.200834 -13.088023 4.722593 1.186492 -6.084308 10.279120 -8.893256 0.179144 1.550023 38.531378 1.091992 -4.263251 26.253057 -2.823000 0.000000 -56.626500 8.119231 -1.912045 2.046418 10.314715 -2.828898 -37.022603 2.360282 -2.039581 37.060154 -1.549535 -2.300536 -17.978192 0.696900 -0.000001 -30.500100 7.476240 -3.214293 -4.093108 0.808167 -3.963200 -3.699456 -7.569089 -3.947171 -0.232890 4.389723 -8.821658 -6.847711 -5.370536 -0.403656 0.097805 0.000000 0.000000 0.000000 -1.196820 5.833955 1.338543 -55.279598 -18.045147 26.966452 -178.991320 -78.584224 179.954783 6.223151 -1.240898 -0.098505 -0.312480 0.571477 0.000000 0.000000 0.000000 0.000000 0.000000 0.000000 0.000000 16.172513 -5.910725 0.507368 68.521302 2.124354 -0.939740 0.704662 63.890767 -0.051612 -14.423933 2.227434 -0.315122 0.168749 -0.242202 -0.000000 0.000000 0.000000 0.000000 0.000000 0.000000 0.000000 
-9.223928 16.832969 0.340428 111.511114 85.914036 130.058904 -12.915324 4.525705 1.139433 -5.637396 10.148315 -10.053768 0.317552 1.571383 40.718611 1.184164 -2.656264 25.635081 -2.005800 -0.000000 -54.809000 8.256328 -2.050006 1.968273 10.739133 -3.349249 -35.947788 2.474097 -2.004333 36.431327 -1.584461 -2.350397 -18.426625 0.752200 -0.000000 -31.566100 7.767993 -3.234583 -4.032807 0.861193 -4.007027 -3.704401 -7.575426 -3.993924 -0.291016 4.322248 -8.623789 -6.828524 -5.427105 -0.407358 0.095898 0.000000 0.000000 0.000000 -1.388159 5.857222 1.323879 -55.848205 -17.505069 26.750784 -179.091100 -79.438970 179.949115 6.921786 -1.218929 -0.107788 -0.325370 0.564223 -0.000000 0.000000 0.000000 0.000000 0.000000 0.000000 0.000000 16.393940 -5.763355 0.512226 68.570142 2.560799 -0.690963 0.697349 62.986878 -0.055819 -15.531069 1.698012 -0.265654 0.179081 -0.236025 -0.000000 0.000000 0.000000 0.000000 0.000000 0.000000 0.000000 
-9.033226 16.844097 0.356908 119.629082 86.060909 138.185829 -12.720788 4.377779 1.103736 -5.324867 9.981450 -11.284911 0.412989 1.616293 42.740475 1.266021 -1.029751 24.735659 -1.185100 0.000000 -53.334800 8.416559 -2.126964 1.907644 11.109758 -3.767710 -34.851348 2.567401 -1.922619 35.603315 -1.615437 -2.422985 -18.714422 0.796500 0.000000 -32.228000 7.973032 -3.197899 -3.995197 0.894182 -3.988665 -3.711878 -7.575028 -3.977846 -0.341872 4.277819 -8.468372 -6.826643 -5.468207 -0.409917 0.090272 0.000000 0.000000 0.000000 -1.535733 5.943460 1.284999 -56.533375 -16.875501 26.578337 -179.203916 -80.419589 179.943037 7.689225 -1.132824 -0.113101 -0.337585 0.552984 -0.000000 0.000000 0.000000 0.000000 0.000000 0.000000 0.000000 16.581186 -5.608708 0.504412 68.670395 2.986621 -0.300872 0.690927 62.292415 -0.059363 -16.420126 1.202688 -0.208176 0.188222 -0.231102 -0.000000 0.000000 0.000000 0.000000 0.000000 0.000000 0.000000 
-8.842379 16.860926 0.375030 125.295433 86.170308 143.909448 -12.553252 4.265503 1.083244 -5.169562 9.779606 -12.564899 0.474544 1.679111 44.576410 1.333568 0.515452 23.579390 -0.427799 0.000000 -52.095100 8.557466 -2.165264 1.863316 11.385351 -4.084234 -33.758341 2.633608 -1.807971 34.668526 -1.642141 -2.520043 -18.842318 0.829399 -0.000000 -32.528899 8.027627 -3.117982 -3.979062 0.896280 -3.916432 -3.722850 -7.565684 -3.908246 -0.392288 4.250958 -8.345163 -6.834876 -5.495178 -0.411524 0.082890 0.000000 0.000000 0.000000 -1.639650 6.060494 1.227079 -57.301452 -16.126709 26.417224 -179.323587 -81.483714 179.936952 8.491390 -0.985960 -0.112553 -0.348019 0.538167 -0.000000 0.000000 0.000000 0.000000 0.000000 0.000000 0.000000 16.731238 -5.440807 0.486108 68.826775 3.385389 0.205156 0.686300 61.818953 -0.062112 -17.042980 0.781131 -0.151884 0.195666 -0.227794 -0.000000 0.000000 0.000000 0.000000 0.000000 0.000000 0.000000 
